<svg xmlns="http://www.w3.org/2000/svg" viewBox="0 0 64 64" fill="none">
  <defs>
    <linearGradient id="goldGrad" x1="0%" y1="0%" x2="100%" y2="100%">
      <stop offset="0%" style="stop-color:#D4AF37;stop-opacity:1" />
      <stop offset="100%" style="stop-color:#F4D03F;stop-opacity:1" />
    </linearGradient>
    <linearGradient id="violetGrad" x1="0%" y1="0%" x2="100%" y2="100%">
      <stop offset="0%" style="stop-color:#8B5CF6;stop-opacity:1" />
      <stop offset="100%" style="stop-color:#A78BFA;stop-opacity:1" />
    </linearGradient>
  </defs>
  
  <!-- Background circle -->
  <circle cx="32" cy="32" r="30" fill="url(#goldGrad)"/>
  
  <!-- Canvas frame -->
  <rect x="14" y="14" width="36" height="36" rx="2" fill="none" stroke="url(#violetGrad)" stroke-width="2" opacity="0.9"/>
  
  <!-- Neural network - simplified for small size -->
  <circle cx="24" cy="24" r="2.5" fill="#8B5CF6"/>
  <circle cx="32" cy="20" r="2.5" fill="#8B5CF6"/>
  <circle cx="40" cy="24" r="2.5" fill="#8B5CF6"/>
  <circle cx="26" cy="32" r="2.5" fill="#8B5CF6"/>
  <circle cx="32" cy="32" r="3" fill="#D4AF37"/>
  <circle cx="38" cy="32" r="2.5" fill="#8B5CF6"/>
  <circle cx="24" cy="40" r="2.5" fill="#8B5CF6"/>
  <circle cx="32" cy="44" r="2.5" fill="#8B5CF6"/>
  <circle cx="40" cy="40" r="2.5" fill="#8B5CF6"/>
  
  <!-- Key connections -->
  <line x1="24" y1="24" x2="32" y2="32" stroke="#8B5CF6" stroke-width="1.5" opacity="0.7"/>
  <line x1="32" y1="20" x2="32" y2="32" stroke="#8B5CF6" stroke-width="1.5" opacity="0.7"/>
  <line x1="40" y1="24" x2="32" y2="32" stroke="#8B5CF6" stroke-width="1.5" opacity="0.7"/>
  <line x1="24" y1="40" x2="32" y2="32" stroke="#8B5CF6" stroke-width="1.5" opacity="0.7"/>
  <line x1="40" y1="40" x2="32" y2="32" stroke="#8B5CF6" stroke-width="1.5" opacity="0.7"/>
</svg>

